<svg width="126" height="51" viewBox="0 0 126 51" fill="none" xmlns="http://www.w3.org/2000/svg">
<g clip-path="url(#clip0_1810_6292)">
<rect width="126" height="51" fill="#0559FD"/>
<path d="M22.6419 32.5863C22.6419 33.9319 22.38 35.1945 21.8563 36.3742C21.3513 37.554 20.6499 38.5862 19.752 39.471C18.8542 40.3558 17.8068 41.0562 16.6097 41.5724C15.4126 42.07 14.1313 42.3189 12.7659 42.3189H9.90408C8.53864 42.3189 7.24803 42.07 6.03223 41.5724C4.83514 41.0562 3.78768 40.3558 2.88986 39.471C1.99204 38.5862 1.28126 37.554 0.757536 36.3742C0.252512 35.1945 0 33.9319 0 32.5863V11.2961C0 9.95049 0.252512 8.68783 0.757536 7.50812C1.28126 6.3284 1.99204 5.29615 2.88986 4.41137C3.78768 3.52658 4.83514 2.83535 6.03223 2.33765C7.24803 1.82153 8.53864 1.56347 9.90408 1.56347H12.7659C14.1313 1.56347 15.4126 1.82153 16.6097 2.33765C17.8068 2.83535 18.8542 3.52658 19.752 4.41137C20.6499 5.29615 21.3513 6.3284 21.8563 7.50812C22.38 8.68783 22.6419 9.95049 22.6419 11.2961V32.5863ZM19.0226 11.2961C19.0226 10.4113 18.8542 9.59105 18.5175 8.8353C18.1809 8.06111 17.7226 7.3883 17.1428 6.81688C16.5629 6.24546 15.8802 5.79385 15.0946 5.46205C14.3277 5.13026 13.4954 4.96436 12.5975 4.96436H10.0724C9.1746 4.96436 8.33289 5.13026 7.5473 5.46205C6.78041 5.79385 6.09769 6.24546 5.49915 6.81688C4.91931 7.3883 4.46104 8.06111 4.12436 8.8353C3.78768 9.59105 3.61934 10.4113 3.61934 11.2961V32.5863C3.61934 33.471 3.78768 34.3005 4.12436 35.0747C4.46104 35.8305 4.91931 36.5033 5.49915 37.0931C6.09769 37.6645 6.78041 38.1162 7.5473 38.448C8.33289 38.7797 9.1746 38.9456 10.0724 38.9456H12.5975C13.4954 38.9456 14.3277 38.7797 15.0946 38.448C15.8802 38.1162 16.5629 37.6645 17.1428 37.0931C17.7226 36.5033 18.1809 35.8305 18.5175 35.0747C18.8542 34.3005 19.0226 33.471 19.0226 32.5863V11.2961Z" fill="white"/>
<path d="M82.6208 32.5863C82.6208 33.9319 82.3412 35.1945 81.7822 36.3742C81.2417 37.554 80.5057 38.5862 79.5739 39.471C78.6608 40.3558 77.5892 41.0562 76.3593 41.5724C75.148 42.07 73.8622 42.3189 72.5018 42.3189H69.6226C68.2623 42.3189 66.9671 42.07 65.7372 41.5724C64.5259 41.0562 63.4543 40.3558 62.5226 39.471C61.6094 38.5862 60.8734 37.554 60.3143 36.3742C59.7739 35.1945 59.5037 33.9319 59.5037 32.5863V31.0102L63.1096 30.4296V32.5863C63.1096 33.471 63.2866 34.3005 63.6407 35.0747C64.0134 35.8305 64.5072 36.5033 65.1222 37.0931C65.7372 37.6646 66.4453 38.1162 67.2466 38.448C68.0666 38.7797 68.9238 38.9456 69.8183 38.9456H72.3341C73.2286 38.9456 74.0765 38.7797 74.8778 38.448C75.6791 38.1162 76.3872 37.6646 77.0022 37.0931C77.6172 36.5033 78.1017 35.8305 78.4558 35.0747C78.8285 34.3005 79.0148 33.471 79.0148 32.5863V31.3973C79.0148 30.0333 78.7446 28.8996 78.2042 27.9964C77.6638 27.0932 76.9463 26.3282 76.0518 25.7015C75.1573 25.0564 74.1417 24.5126 73.0049 24.0702C71.8868 23.6278 70.7314 23.1854 69.5388 22.743C68.3461 22.3006 67.1814 21.8121 66.0447 21.2776C64.9265 20.743 63.9202 20.0794 63.0257 19.2868C62.1312 18.4758 61.4138 17.4896 60.8734 16.3283C60.3329 15.167 60.0627 13.7385 60.0627 12.0426V11.2961C60.0627 9.95049 60.3143 8.68783 60.8174 7.50812C61.3392 6.3284 62.0474 5.29615 62.9419 4.41137C63.8364 3.52658 64.8799 2.83535 66.0726 2.33765C67.2839 1.82153 68.5697 1.56347 69.9301 1.56347H72.5018C73.8622 1.56347 75.1387 1.82153 76.3313 2.33765C77.524 2.83535 78.5676 3.52658 79.4621 4.41137C80.3566 5.29615 81.0554 6.3284 81.5585 7.50812C82.0803 8.68783 82.3412 9.95049 82.3412 11.2961V12.3191L78.7353 12.8998V11.2961C78.7353 10.4113 78.5676 9.59105 78.2321 8.8353C77.8967 8.06111 77.4401 7.3883 76.8624 6.81688C76.2848 6.24546 75.6046 5.79385 74.8219 5.46205C74.0578 5.13026 73.2286 4.96436 72.3341 4.96436H70.0978C69.2033 4.96436 68.3647 5.13026 67.5821 5.46205C66.818 5.79385 66.1378 6.24546 65.5415 6.81688C64.9638 7.3883 64.5072 8.06111 64.1718 8.8353C63.8364 9.59105 63.6686 10.4113 63.6686 11.2961V12.0426C63.6686 13.3145 63.9389 14.3836 64.4793 15.25C65.0197 16.1163 65.7372 16.8629 66.6317 17.4896C67.5262 18.0979 68.5325 18.6324 69.6506 19.0933C70.7873 19.5357 71.952 19.9965 73.1447 20.4758C74.3374 20.9366 75.4928 21.4527 76.6109 22.0241C77.7476 22.5771 78.7632 23.2684 79.6577 24.0978C80.5522 24.9089 81.2697 25.9043 81.8101 27.084C82.3505 28.2637 82.6208 29.7015 82.6208 31.3973V32.5863Z" fill="white"/>
<path d="M90.3917 41.7659V2.11646H93.9976V41.7659H90.3917Z" fill="white"/>
<path d="M125.165 32.5863C125.165 33.9319 124.886 35.1945 124.327 36.3742C123.786 37.554 123.05 38.5862 122.118 39.471C121.205 40.3558 120.134 41.0562 118.904 41.5724C117.692 42.07 116.407 42.3189 115.046 42.3189H112.167C110.807 42.3189 109.512 42.07 108.282 41.5724C107.07 41.0562 105.999 40.3558 105.067 39.471C104.154 38.5862 103.418 37.554 102.859 36.3742C102.318 35.1945 102.048 33.9319 102.048 32.5863V31.0102L105.654 30.4296V32.5863C105.654 33.471 105.831 34.3005 106.185 35.0747C106.558 35.8305 107.052 36.5033 107.667 37.0931C108.282 37.6646 108.99 38.1162 109.791 38.448C110.611 38.7797 111.468 38.9456 112.363 38.9456H114.878C115.773 38.9456 116.621 38.7797 117.422 38.448C118.224 38.1162 118.932 37.6646 119.547 37.0931C120.162 36.5033 120.646 35.8305 121 35.0747C121.373 34.3005 121.559 33.471 121.559 32.5863V31.3973C121.559 30.0333 121.289 28.8996 120.749 27.9964C120.208 27.0932 119.491 26.3282 118.596 25.7015C117.702 25.0564 116.686 24.5126 115.549 24.0702C114.431 23.6278 113.276 23.1854 112.083 22.743C110.891 22.3006 109.726 21.8121 108.589 21.2776C107.471 20.743 106.465 20.0794 105.57 19.2868C104.676 18.4758 103.958 17.4896 103.418 16.3283C102.877 15.167 102.607 13.7385 102.607 12.0426V11.2961C102.607 9.95049 102.859 8.68783 103.362 7.50812C103.884 6.3284 104.592 5.29615 105.486 4.41137C106.381 3.52658 107.424 2.83535 108.617 2.33765C109.828 1.82153 111.114 1.56347 112.475 1.56347H115.046C116.407 1.56347 117.683 1.82153 118.876 2.33765C120.068 2.83535 121.112 3.52658 122.006 4.41137C122.901 5.29615 123.6 6.3284 124.103 7.50812C124.625 8.68783 124.886 9.95049 124.886 11.2961V12.3191L121.28 12.8998V11.2961C121.28 10.4113 121.112 9.59105 120.777 8.8353C120.441 8.06111 119.985 7.3883 119.407 6.81688C118.829 6.24546 118.149 5.79385 117.366 5.46205C116.602 5.13026 115.773 4.96436 114.878 4.96436H112.642C111.748 4.96436 110.909 5.13026 110.126 5.46205C109.362 5.79385 108.682 6.24546 108.086 6.81688C107.508 7.3883 107.052 8.06111 106.716 8.8353C106.381 9.59105 106.213 10.4113 106.213 11.2961V12.0426C106.213 13.3145 106.483 14.3836 107.024 15.25C107.564 16.1163 108.282 16.8629 109.176 17.4896C110.071 18.0979 111.077 18.6324 112.195 19.0933C113.332 19.5357 114.496 19.9965 115.689 20.4758C116.882 20.9366 118.037 21.4527 119.155 22.0241C120.292 22.5771 121.308 23.2684 122.202 24.0978C123.097 24.9089 123.814 25.9043 124.355 27.084C124.895 28.2637 125.165 29.7015 125.165 31.3973V32.5863Z" fill="white"/>
<path d="M5.51696 44.122L16.1566 36.0437L23.0527 26.9803L63.4441 30.1328L68.3663 38.9992L78.1789 47.0669L72.5193 48.878L68.3663 50.0329H7.22588L5.51696 44.122Z" fill="#0559FD"/>
<rect x="33.1362" y="4.16482" width="16.4763" height="2.60152" rx="1.30076" fill="white"/>
<path d="M32.3138 2.76362C32.3138 1.66526 33.2042 0.774857 34.3026 0.774857H47.6638C48.7622 0.774857 49.6526 1.66526 49.6526 2.76362V2.76362C49.6526 3.62397 48.9551 4.32142 48.0948 4.32142H33.8716C33.0113 4.32142 32.3138 3.62397 32.3138 2.76362V2.76362Z" fill="white"/>
<path d="M13.2054 49.1048C31.315 42.9435 38.3607 23.5664 40.9396 12.8369C43.5185 23.5664 49.8812 42.9435 67.9908 49.1048M37.4287 10.8455C36.2825 18.4154 29.1857 38.0743 9.3568 48.185M43.7675 10.8455C44.9137 18.4154 52.4633 38.0743 72.2922 48.185" stroke="white" stroke-width="1.35832" stroke-linecap="round" stroke-linejoin="round"/>
<path d="M34.0334 6.09136C31.5529 15.0158 24.5939 35.7053 4.82957 46.1617" stroke="white" stroke-width="3.84316" stroke-linecap="round" stroke-linejoin="round"/>
<path d="M48.0696 6.09136C50.3055 15.0158 59.0049 35.4789 76.8207 45.9353" stroke="white" stroke-width="3.84316" stroke-linecap="round" stroke-linejoin="round"/>
</g>
<defs>
<clipPath id="clip0_1810_6292">
<rect width="126" height="51" fill="white"/>
</clipPath>
</defs>
</svg>
